<svg class="img-fluid" id="outputsvg" xmlns="http://www.w3.org/2000/svg" style="transform: matrix(1, 0, 0, 1, 0, 0); transform-origin: 50% 50%; cursor: move; max-height: none; transition: transform 200ms ease-in-out;" width="1280" height="1280" viewBox="0 0 12800 12800"><g id="l3gaX54zBgTavFXdd0GsAY3" fill="rgb(73,73,74)" style="transform: none;"><g style="transform: none;"><path id="pSTXNKxGU" d="M0 6400 l0 -6400 6400 0 6400 0 0 6400 0 6400 -6400 0 -6400 0 0 -6400z"></path></g></g><g id="l54F4IRHEs9FVRzhkaXa8pU" fill="rgb(129,166,138)" style="transform: none;"><g style="transform: none;"><path id="pixrEKcPf" d="M0 6400 l0 -6400 6400 0 6400 0 0 6400 0 6400 -6400 0 -6400 0 0 -6400z m5805 -1770 c38 -14 143 -122 151 -155 11 -45 -14 -160 -41 -185 -49 -46 -213 -67 -274 -35 -68 35 -122 129 -123 213 0 49 29 119 56 135 57 33 179 47 231 27z"></path></g></g><g id="lhnahPmGPqekbe3Dou8hVr" fill="rgb(250,136,47)" style="transform: none;"><g style="transform: none;"><path id="paoHy5W2v" d="M6604 12783 c3 -10 9 -43 15 -74 16 -91 59 -202 86 -224 13 -11 33 -46 44 -78 21 -61 45 -109 72 -142 24 -31 99 -160 99 -172 0 -5 10 -18 21 -29 12 -10 35 -39 52 -64 17 -25 36 -52 43 -60 71 -82 84 -98 84 -104 0 -4 19 -34 43 -67 23 -34 51 -76 63 -95 11 -19 28 -42 37 -51 57 -61 123 -157 165 -239 5 -11 17 -34 27 -53 10 -19 22 -51 26 -70 4 -20 17 -81 29 -136 12 -55 25 -129 30 -165 4 -36 18 -93 29 -125 12 -33 29 -89 37 -125 9 -36 21 -70 26 -77 5 -6 17 -51 27 -100 21 -101 37 -165 59 -243 8 -30 16 -65 18 -77 5 -51 16 -110 25 -138 5 -16 11 -56 14 -87 3 -32 13 -77 21 -100 8 -24 19 -76 24 -116 4 -43 15 -81 24 -91 9 -10 16 -35 16 -58 0 -22 12 -96 26 -164 35 -171 58 -319 74 -474 5 -49 14 -117 20 -150 46 -250 60 -442 58 -825 -1 -365 -10 -543 -32 -675 -9 -49 -21 -124 -27 -165 -37 -240 -43 -262 -120 -417 -54 -111 -77 -146 -99 -158 -56 -29 -118 -75 -134 -100 -9 -14 -26 -25 -37 -25 -12 0 -33 -14 -47 -31 -31 -35 -81 -59 -126 -59 -17 0 -47 -4 -66 -9 -19 -5 -51 -12 -70 -14 -56 -8 -191 -37 -245 -53 -27 -9 -79 -20 -115 -25 -36 -5 -96 -16 -135 -24 -38 -8 -95 -20 -126 -25 -61 -11 -125 -34 -149 -55 -8 -7 -30 -15 -49 -19 -19 -3 -73 -26 -120 -49 -47 -24 -113 -49 -147 -55 -33 -7 -170 -17 -305 -22 -134 -5 -271 -14 -304 -19 -33 -4 -143 -7 -244 -5 l-183 3 -47 50 c-37 41 -53 51 -86 55 -96 10 -171 31 -192 53 -12 13 -34 23 -48 23 -15 0 -39 8 -53 19 -26 18 -51 22 -237 37 -79 6 -83 8 -95 39 -7 19 -19 24 -62 30 -29 3 -66 12 -83 20 -69 31 -108 45 -122 45 -8 0 -27 8 -41 19 -40 27 -118 50 -199 57 -63 6 -77 11 -110 40 -28 25 -47 34 -74 34 -43 0 -171 40 -221 69 -57 34 -148 61 -222 66 -68 4 -72 6 -106 45 -20 22 -42 40 -50 40 -8 0 -34 -17 -57 -38 -23 -20 -74 -50 -112 -65 -45 -18 -72 -35 -76 -48 -4 -11 -24 -31 -46 -45 -22 -13 -37 -29 -34 -34 6 -9 -11 -23 -33 -26 -33 -5 -65 -41 -102 -114 -22 -44 -44 -80 -48 -80 -21 0 -62 -53 -62 -81 0 -36 27 -87 50 -94 8 -3 27 -26 40 -51 14 -26 49 -66 78 -89 28 -24 64 -58 80 -76 15 -18 47 -54 72 -79 115 -117 170 -178 170 -188 0 -12 54 -32 86 -32 25 0 47 -30 39 -53 -10 -25 14 -66 52 -91 21 -13 58 -49 83 -80 25 -31 60 -72 78 -91 17 -19 32 -38 32 -43 0 -5 37 -48 82 -95 46 -47 98 -104 116 -126 18 -23 39 -41 46 -41 7 0 29 -17 49 -37 20 -21 53 -54 72 -73 19 -19 35 -39 35 -44 0 -4 37 -43 82 -85 46 -42 110 -104 143 -137 125 -128 274 -286 273 -291 0 -3 4 -9 9 -12 4 -3 21 -23 36 -44 21 -28 34 -36 47 -32 10 3 37 -3 59 -15 22 -11 45 -20 51 -20 12 0 89 -56 153 -113 26 -23 65 -50 85 -61 20 -10 53 -33 72 -50 43 -40 116 -96 124 -96 3 0 33 -27 67 -59 33 -33 74 -65 90 -71 16 -7 29 -16 29 -21 0 -5 5 -9 11 -9 6 0 31 -14 56 -30 119 -81 206 -113 378 -139 184 -29 215 -31 435 -35 294 -5 666 29 800 74 14 5 38 11 54 15 16 3 96 40 178 80 83 41 155 75 162 75 6 0 36 23 66 52 30 28 78 66 106 84 29 18 58 39 65 46 8 8 31 24 52 37 20 12 37 26 37 29 0 16 98 123 138 152 24 17 57 51 74 75 18 25 44 49 61 55 17 6 38 17 47 25 9 9 57 27 106 41 124 35 191 65 203 91 5 12 36 38 68 59 32 20 60 39 63 43 3 3 21 15 40 25 19 11 51 35 70 55 20 20 44 43 55 52 11 9 41 38 67 65 25 27 70 69 99 94 29 25 66 59 83 76 17 17 41 37 54 43 12 7 36 31 53 54 17 23 64 76 105 118 41 42 74 79 74 82 0 4 31 38 70 77 63 64 170 207 170 228 0 9 57 89 83 114 9 10 17 25 17 33 0 7 15 49 34 92 18 43 37 96 41 118 4 22 10 45 15 50 8 10 27 73 61 205 11 41 30 111 44 155 13 44 29 107 35 140 7 33 16 65 20 70 4 6 10 50 14 99 6 87 19 157 56 301 10 39 21 88 24 110 3 22 10 65 16 95 6 30 15 118 20 195 6 77 17 176 25 220 8 44 19 170 25 280 6 111 15 228 21 260 6 33 12 78 15 100 6 59 23 259 29 345 9 110 13 132 30 172 8 21 15 53 15 72 0 19 4 57 9 83 5 26 15 80 22 118 7 39 20 86 29 105 10 19 27 73 39 120 12 47 28 101 36 120 8 19 27 89 41 155 15 66 35 138 45 160 10 22 32 92 49 155 49 185 52 194 62 220 6 14 19 61 28 105 10 44 30 108 44 143 15 35 31 86 36 115 5 29 16 69 24 89 9 21 16 45 16 55 0 10 14 46 31 80 29 58 35 64 102 97 84 40 124 52 227 62 41 4 77 8 80 9 16 4 148 15 230 20 52 4 102 8 110 10 8 3 53 9 100 15 47 5 117 15 155 21 39 5 122 14 185 19 120 9 309 40 395 65 28 8 73 17 102 20 28 3 62 9 75 14 13 4 45 12 73 16 27 4 65 15 85 24 19 10 75 26 123 35 49 10 107 25 130 35 23 10 65 23 92 29 28 7 76 20 108 29 l57 18 0 847 0 848 -3101 0 c-2948 0 -3100 -1 -3095 -17z m-812 -8138 c45 -7 137 -87 163 -141 14 -30 16 -51 10 -112 -6 -69 -10 -77 -43 -109 -40 -36 -75 -49 -164 -59 -109 -13 -194 45 -237 160 -25 68 -26 88 -6 148 24 68 59 96 141 112 38 8 76 13 84 11 8 -2 32 -6 52 -10z"></path></g></g><g id="l6gP7PJ0XmZezh0T1z2Ux0j" fill="rgb(234,238,236)" style="transform: none;"><g style="transform: none;"><path id="phUdJ7ULx" d="M6604 12783 c3 -10 9 -43 15 -74 16 -91 59 -202 86 -224 13 -11 33 -46 44 -78 21 -61 45 -109 72 -142 24 -31 99 -160 99 -172 0 -5 10 -18 21 -29 12 -10 35 -39 52 -64 17 -25 36 -52 43 -60 71 -82 84 -98 84 -104 0 -4 19 -34 43 -67 23 -34 51 -76 63 -95 11 -19 28 -42 37 -51 57 -61 123 -157 165 -239 5 -11 17 -34 27 -53 10 -19 22 -51 26 -70 4 -20 17 -81 29 -136 12 -55 25 -129 30 -165 4 -36 18 -93 29 -125 12 -33 29 -89 37 -125 9 -36 21 -70 26 -77 5 -6 17 -51 27 -100 21 -101 37 -165 59 -243 8 -30 16 -65 18 -77 5 -51 16 -110 25 -138 5 -16 11 -56 14 -87 3 -32 13 -77 21 -100 8 -24 19 -76 24 -116 4 -43 15 -81 24 -91 9 -10 16 -35 16 -58 0 -22 12 -96 26 -164 35 -171 58 -319 74 -474 5 -49 14 -117 20 -150 46 -250 60 -442 58 -825 -1 -365 -10 -543 -32 -675 -9 -49 -21 -124 -27 -165 -37 -240 -43 -262 -120 -417 -54 -111 -77 -146 -99 -158 -56 -29 -118 -75 -134 -100 -9 -14 -26 -25 -37 -25 -12 0 -33 -14 -47 -31 -31 -35 -81 -59 -126 -59 -17 0 -47 -4 -66 -9 -19 -5 -51 -12 -70 -14 -56 -8 -191 -37 -245 -53 -27 -9 -79 -20 -115 -25 -36 -5 -96 -16 -135 -24 -38 -8 -95 -20 -126 -25 -61 -11 -125 -34 -149 -55 -8 -7 -30 -15 -49 -19 -19 -3 -73 -26 -120 -49 -47 -24 -113 -49 -147 -55 -33 -7 -170 -17 -305 -22 -134 -5 -271 -14 -304 -19 -33 -4 -145 -7 -248 -5 l-188 3 6 -33 c11 -55 -56 -276 -83 -276 -10 0 -37 -115 -52 -224 -6 -49 -22 -102 -40 -142 -42 -87 -56 -129 -95 -281 -19 -73 -54 -187 -78 -255 -24 -68 -54 -157 -68 -198 -25 -80 -60 -123 -108 -135 -14 -4 -33 -13 -42 -21 -8 -7 -48 -27 -89 -44 -40 -17 -79 -35 -87 -41 -8 -7 -13 -32 -13 -64 l0 -52 52 -22 c29 -13 58 -26 64 -30 38 -21 104 -71 139 -104 22 -22 61 -49 86 -62 25 -13 52 -31 59 -40 16 -19 126 -105 134 -105 3 0 33 -27 67 -59 33 -33 74 -65 90 -71 16 -7 29 -16 29 -21 0 -5 5 -9 11 -9 6 0 31 -14 56 -30 119 -81 206 -113 378 -139 184 -29 215 -31 435 -35 294 -5 666 29 800 74 14 5 38 11 54 15 16 3 96 40 178 80 83 41 155 75 162 75 6 0 36 23 66 52 30 28 78 66 106 84 29 18 58 39 65 46 8 8 31 24 52 37 20 12 37 26 37 29 0 16 98 123 138 152 24 17 57 51 74 75 18 25 44 49 61 55 17 6 38 17 47 25 9 9 57 27 106 41 124 35 191 65 203 91 5 12 36 38 68 59 32 20 60 39 63 43 3 3 21 15 40 25 19 11 51 35 70 55 20 20 44 43 55 52 11 9 41 38 67 65 25 27 70 69 99 94 29 25 66 59 83 76 17 17 41 37 54 43 12 7 36 31 53 54 17 23 64 76 105 118 41 42 74 79 74 82 0 4 31 38 70 77 63 64 170 207 170 228 0 9 57 89 83 114 9 10 17 25 17 33 0 7 15 49 34 92 18 43 37 96 41 118 4 22 10 45 15 50 8 10 27 73 61 205 11 41 30 111 44 155 13 44 29 107 35 140 7 33 16 65 20 70 4 6 10 50 14 99 6 87 19 157 56 301 10 39 21 88 24 110 3 22 10 65 16 95 6 30 15 118 20 195 6 77 17 176 25 220 8 44 19 170 25 280 6 111 15 228 21 260 6 33 12 78 15 100 6 59 23 259 29 345 9 110 13 132 30 172 8 21 15 53 15 72 0 19 4 57 9 83 5 26 15 80 22 118 7 39 20 86 29 105 10 19 27 73 39 120 12 47 28 101 36 120 8 19 27 89 41 155 15 66 35 138 45 160 10 22 32 92 49 155 49 185 52 194 62 220 6 14 19 61 28 105 10 44 30 108 44 143 15 35 31 86 36 115 5 29 16 69 24 89 9 21 16 45 16 55 0 10 14 46 31 80 29 58 35 64 102 97 84 40 124 52 227 62 41 4 77 8 80 9 16 4 148 15 230 20 52 4 102 8 110 10 8 3 53 9 100 15 47 5 117 15 155 21 39 5 122 14 185 19 120 9 309 40 395 65 28 8 73 17 102 20 28 3 62 9 75 14 13 4 45 12 73 16 27 4 65 15 85 24 19 10 75 26 123 35 49 10 107 25 130 35 23 10 65 23 92 29 28 7 76 20 108 29 l57 18 0 847 0 848 -3101 0 c-2948 0 -3100 -1 -3095 -17z m-812 -8138 c45 -7 137 -87 163 -141 14 -30 16 -51 10 -112 -6 -69 -10 -77 -43 -109 -40 -36 -75 -49 -164 -59 -109 -13 -194 45 -237 160 -25 68 -26 88 -6 148 24 68 59 96 141 112 38 8 76 13 84 11 8 -2 32 -6 52 -10z"></path></g></g></svg>